<svg xmlns="http://www.w3.org/2000/svg" version="1.1" xmlns:xlink="http://www.w3.org/1999/xlink" xmlns:svgjs="http://svgjs.dev/svgjs" width="1500" height="265" viewBox="0 0 1500 265"><g transform="matrix(1,0,0,1,-0.9090909090909918,0.7343841503732449)"><svg viewBox="0 0 396 70" data-background-color="#161618" preserveAspectRatio="xMidYMid meet" height="265" width="1500" xmlns="http://www.w3.org/2000/svg" xmlns:xlink="http://www.w3.org/1999/xlink"><g id="tight-bounds" transform="matrix(1,0,0,1,0.2400000000000091,-0.1939882661363299)"><svg viewBox="0 0 395.52 70.38797653227266" height="70.38797653227266" width="395.52"><g><svg viewBox="0 0 600.2562025829824 106.8234716342083" height="70.38797653227266" width="395.52"><g><rect width="5.568468736298053" height="62.056409822184584" x="184.590590557946" y="22.38353090601186" fill="#ffffff" opacity="1" stroke-width="0" stroke="transparent" fill-opacity="1" class="rect-qz-0" data-fill-palette-color="primary" rx="1%" id="qz-0" data-palette-color="#ffffff"></rect></g><g transform="matrix(1,0,0,1,204.73620258298243,22.537900084674007)"><svg viewBox="0 0 395.52 61.74767146486029" height="61.74767146486029" width="395.52"><g id="textblocktransform"><svg viewBox="0 0 395.52 61.74767146486029" height="61.74767146486029" width="395.52" id="textblock"><g><svg viewBox="0 0 395.52 61.74767146486029" height="61.74767146486029" width="395.52"><g transform="matrix(1,0,0,1,0,0)"><svg width="395.52" viewBox="4.49 -36.01 230.64999999999998 36.01" height="61.74767146486029" data-palette-color="#ffffff"><path d="M9.5 0L4.49 0 4.49-35.01 23.66-35.01Q32.15-35.01 32.15-26.49L32.15-26.49 32.15-21.51Q32.15-12.99 23.66-12.99L23.66-12.99 9.5-12.99 9.5 0ZM9.5-30L9.5-17.99 23.39-17.99Q25.39-17.99 26.27-18.87 27.15-19.75 27.15-21.75L27.15-21.75 27.15-26.25Q27.15-28.25 26.27-29.13 25.39-30 23.39-30L23.39-30 9.5-30ZM38.64-4.81L38.64-26 43.43-26 43.43-4.81 56.83-4.81 56.83-26 61.64-26 61.64 0 56.83 0 56.83-4.39Q56.76-3.49 56.35-2.69 55.93-1.88 55.28-1.28 54.64-0.68 53.81-0.34 52.98 0 52.05 0L52.05 0 43.43 0Q42.45 0 41.57-0.38 40.7-0.76 40.05-1.4 39.4-2.05 39.02-2.93 38.64-3.81 38.64-4.81L38.64-4.81ZM69.65-36.01L74.43-36.01 74.43 0 69.65 0 69.65-36.01ZM81.93-4.81L98.14-4.81 98.14-10.84 86.74-10.84Q85.73-10.84 84.86-11.22 83.98-11.6 83.33-12.24 82.68-12.89 82.3-13.77 81.93-14.65 81.93-15.65L81.93-15.65 81.93-21.19Q81.93-22.19 82.3-23.07 82.68-23.95 83.33-24.6 83.98-25.24 84.86-25.62 85.73-26 86.74-26L86.74-26 101.95-26 101.95-21.19 86.74-21.19 86.74-15.65 98.14-15.65Q99.14-15.65 100-15.27 100.87-14.89 101.53-14.25 102.19-13.6 102.57-12.72 102.95-11.84 102.95-10.84L102.95-10.84 102.95-4.81Q102.95-3.81 102.57-2.93 102.19-2.05 101.53-1.4 100.87-0.76 100-0.38 99.14 0 98.14 0L98.14 0 81.93 0 81.93-4.81ZM132.44-21.19L132.44-10.55 115.22-10.55 115.22-4.81 132.44-4.81 132.44 0 115.22 0Q114.25 0 113.37-0.38 112.49-0.76 111.84-1.4 111.2-2.05 110.82-2.93 110.44-3.81 110.44-4.81L110.44-4.81 110.44-21.19Q110.44-22.19 110.82-23.07 111.2-23.95 111.84-24.6 112.49-25.24 113.37-25.62 114.25-26 115.22-26L115.22-26 127.63-26Q128.63-26 129.51-25.62 130.39-25.24 131.03-24.6 131.68-23.95 132.06-23.07 132.44-22.19 132.44-21.19L132.44-21.19ZM127.63-21.19L115.22-21.19 115.22-15.36 127.63-15.36 127.63-21.19ZM160.49 0L159 0 145.93-25.66 145.93 0 140.93 0 140.93-35.01 146.4-35.01 159.73-8.64 173.08-35.01 178.53-35.01 178.53 0 173.55 0 173.55-25.66 160.49 0ZM187.05-4.81L187.05-11.35Q187.05-12.35 187.42-13.22 187.8-14.09 188.45-14.75 189.1-15.41 189.98-15.78 190.85-16.16 191.83-16.16L191.83-16.16 204.23-16.16 204.23-21.19 188.53-21.19 188.53-26 204.23-26Q205.23-26 206.11-25.62 206.99-25.24 207.64-24.6 208.29-23.95 208.66-23.07 209.04-22.19 209.04-21.19L209.04-21.19 209.04 0 204.23 0 204.23-4.39Q204.16-3.49 203.74-2.69 203.33-1.88 202.68-1.28 202.04-0.68 201.21-0.34 200.38 0 199.45 0L199.45 0 191.83 0Q190.85 0 189.98-0.38 189.1-0.76 188.45-1.4 187.8-2.05 187.42-2.93 187.05-3.81 187.05-4.81L187.05-4.81ZM191.83-11.35L191.83-4.81 204.23-4.81 204.23-11.35 191.83-11.35ZM217.29-26L222.1-26 222.1 0 217.29 0 217.29-26ZM217.05-31.01L217.05-36.01 222.35-36.01 222.35-31.01 217.05-31.01ZM230.35-36.01L235.14-36.01 235.14 0 230.35 0 230.35-36.01Z" opacity="1" transform="matrix(1,0,0,1,0,0)" fill="#ffffff" class="wordmark-text-0" data-fill-palette-color="primary" id="text-0"></path></svg></g></svg></g></svg></g></svg></g><g><svg viewBox="0 0 170.01344726920763 106.8234716342083" height="106.8234716342083" width="170.01344726920763"><g><svg xmlns="http://www.w3.org/2000/svg" xmlns:xlink="http://www.w3.org/1999/xlink" version="1.1" x="0" y="0" viewBox="5.362 20.34 90.638 56.94999999999999" enable-background="new 0 0 100 100" xml:space="preserve" height="106.8234716342083" width="170.01344726920763" class="icon-icon-0" data-fill-palette-color="accent" id="icon-0"><path d="M23.278 38.058L5.671 61.329c-0.199-0.53-0.309-1.08-0.309-1.675V25.101c0-0.176 0-0.332 0.021-0.486L23.278 38.058z" fill="#0072f3" data-fill-palette-color="accent"></path><path d="M78.07 42.62c9.91 0 17.93 7.76 17.93 17.34 0 9.57-8.02 17.33-17.93 17.33-9.9 0-17.92-7.76-17.92-17.33C60.15 50.38 68.17 42.62 78.07 42.62zM88.62 62.46v-5h-7.74V50h-5v7.46h-7.76v5h7.76v8.04h5v-8.04H88.62z" fill="#0072f3" data-fill-palette-color="accent"></path><path d="M81.01 25.1v12.61c-0.77-0.07-1.56-0.11-2.38-0.11-4.76 0-9.21 1.45-12.87 3.96l-2.529-3.37L81.01 25.03C81.01 25.06 81.01 25.08 81.01 25.1z" fill="#0072f3" data-fill-palette-color="accent"></path><path d="M78.85 21.11L43.2 47.33 7.85 20.91c0.66-0.37 1.43-0.57 2.27-0.57h66.13C77.22 20.34 78.1 20.63 78.85 21.11z" fill="#0072f3" data-fill-palette-color="accent"></path><path d="M59.68 40.83l2.67 3.53c-4.119 4.17-6.68 9.89-6.68 16.2 0 1.32 0.11 2.6 0.33 3.85H10.12c-0.39 0-0.77-0.04-1.14-0.13L26.8 40.7l16.4 12.32L59.68 40.83z" fill="#0072f3" data-fill-palette-color="accent"></path></svg></g></svg></g></svg></g><defs></defs></svg><rect width="395.52" height="70.38797653227266" fill="none" stroke="none" visibility="hidden"></rect></g></svg></g></svg>